<svg width="156" height="87" viewBox="0 0 156 87" fill="none" xmlns="http://www.w3.org/2000/svg">
<path fill-rule="evenodd" clip-rule="evenodd" d="M56 0H53.3333V34.6667H32V21.3333C32 16.9151 28.4183 13.3333 24 13.3333H21.3333V34.6667H8C3.58172 34.6667 0 38.2484 0 42.6667V45.3333H21.3333V58.6667C21.3333 63.0849 24.9151 66.6667 29.3333 66.6667H32V45.3333H53.3333V72C53.3333 76.4183 56.9151 80 61.3333 80H64V8C64 3.58172 60.4183 0 56 0Z" fill="#4BA5FA"/>
<path d="M82.4288 75.04H75.5488L73.8528 80H69.4688L77.5328 57.44H80.7648L88.8288 80H84.2208L82.4288 75.04ZM76.6688 71.52H81.4688L79.8048 66.528L79.1328 63.008H78.9728L78.3008 66.56L76.6688 71.52ZM88.1288 64H90.3368V60.992L94.4968 59.808V64H98.4008V67.52H94.4968V73.664C94.4968 74.7733 94.6034 75.5733 94.8168 76.064C95.0514 76.5333 95.4781 76.768 96.0968 76.768C96.5234 76.768 96.8861 76.7253 97.1848 76.64C97.5048 76.5547 97.8568 76.4267 98.2408 76.256L98.9768 79.456C98.4008 79.7333 97.7288 79.968 96.9608 80.16C96.1928 80.352 95.4141 80.448 94.6248 80.448C93.1528 80.448 92.0648 80.0747 91.3608 79.328C90.6781 78.56 90.3368 77.312 90.3368 75.584V67.52H88.1288V64ZM99.0663 64H101.274V60.992L105.434 59.808V64H109.338V67.52H105.434V73.664C105.434 74.7733 105.541 75.5733 105.754 76.064C105.989 76.5333 106.416 76.768 107.034 76.768C107.461 76.768 107.824 76.7253 108.122 76.64C108.442 76.5547 108.794 76.4267 109.178 76.256L109.914 79.456C109.338 79.7333 108.666 79.968 107.898 80.16C107.13 80.352 106.352 80.448 105.562 80.448C104.09 80.448 103.002 80.0747 102.298 79.328C101.616 78.56 101.274 77.312 101.274 75.584V67.52H99.0663V64ZM111.791 64.928C112.644 64.544 113.657 64.2453 114.831 64.032C116.004 63.7973 117.231 63.68 118.51 63.68C119.62 63.68 120.548 63.8187 121.295 64.096C122.041 64.352 122.628 64.7253 123.055 65.216C123.503 65.7067 123.812 66.2933 123.983 66.976C124.175 67.6587 124.271 68.4267 124.271 69.28C124.271 70.2187 124.239 71.168 124.175 72.128C124.111 73.0667 124.068 73.9947 124.047 74.912C124.047 75.8293 124.079 76.7253 124.143 77.6C124.207 78.4533 124.367 79.264 124.623 80.032H121.231L120.559 77.824H120.399C119.972 78.4853 119.375 79.0613 118.607 79.552C117.86 80.0213 116.889 80.256 115.695 80.256C114.948 80.256 114.276 80.1493 113.679 79.936C113.081 79.7013 112.569 79.3813 112.143 78.976C111.716 78.5493 111.385 78.0587 111.151 77.504C110.916 76.928 110.799 76.288 110.799 75.584C110.799 74.6027 111.012 73.7813 111.439 73.12C111.887 72.4373 112.516 71.8933 113.327 71.488C114.159 71.0613 115.14 70.7733 116.271 70.624C117.423 70.4533 118.703 70.4 120.111 70.464C120.26 69.2693 120.175 68.416 119.855 67.904C119.535 67.3707 118.82 67.104 117.711 67.104C116.879 67.104 115.993 67.1893 115.055 67.36C114.137 67.5307 113.38 67.7547 112.783 68.032L111.791 64.928ZM117.071 76.832C117.903 76.832 118.564 76.6507 119.055 76.288C119.545 75.904 119.908 75.4987 120.143 75.072V72.992C119.481 72.928 118.841 72.9173 118.223 72.96C117.625 73.0027 117.092 73.0987 116.623 73.248C116.153 73.3973 115.78 73.6107 115.503 73.888C115.225 74.1653 115.087 74.5173 115.087 74.944C115.087 75.5413 115.257 76.0107 115.599 76.352C115.961 76.672 116.452 76.832 117.071 76.832ZM128.114 64H132.274V80H128.114V64ZM127.506 59.488C127.506 58.8693 127.73 58.3467 128.178 57.92C128.647 57.472 129.287 57.248 130.098 57.248C130.908 57.248 131.559 57.472 132.05 57.92C132.562 58.3467 132.818 58.8693 132.818 59.488C132.818 60.1067 132.562 60.6293 132.05 61.056C131.559 61.4613 130.908 61.664 130.098 61.664C129.287 61.664 128.647 61.4613 128.178 61.056C127.73 60.6293 127.506 60.1067 127.506 59.488Z" fill="#4BA5FA"/>
</svg>
